<svg id="Layer_1" data-name="Layer 1" xmlns="http://www.w3.org/2000/svg" viewBox="0 0 84.5 84.5"><defs><style>.cls-1{fill:#fff;}.cls-2{isolation:isolate;}.cls-3,.cls-4{fill:#010101;}.cls-4,.cls-5{stroke:#010101;stroke-miterlimit:10;}.cls-4{stroke-width:0.5px;}.cls-5{fill:none;stroke-width:2px;}</style></defs><rect class="cls-1" width="84.5" height="84.5" rx="12"/><g class="cls-2"><path class="cls-3" d="M52.48,54.81q1.32-6.87-10-9.77l-4.06-1.17q-8.43-2.76-7.4-9.71a10.28,10.28,0,0,1,4.76-7.25,16.73,16.73,0,0,1,9.52-2.75q6,0,9.34,3.08a9.27,9.27,0,0,1,2.86,8.24h-2A7.49,7.49,0,0,0,53,28.72a11.19,11.19,0,0,0-7.73-2.58,15.19,15.19,0,0,0-8.17,2.16A8.53,8.53,0,0,0,33,34.09q-1.1,5.82,6.74,8.27l5.45,1.58,1.84.62q8.52,3.12,7.47,10.29a10.72,10.72,0,0,1-4.91,7.56,17.55,17.55,0,0,1-10.07,2.84q-6.12,0-9.78-3a8.37,8.37,0,0,1-3.15-7.82h1.94a7.41,7.41,0,0,0,2.73,6.46c1.94,1.58,4.68,2.36,8.22,2.36a16.59,16.59,0,0,0,8.72-2.43A8.88,8.88,0,0,0,52.48,54.81Z"/></g><path class="cls-4" d="M77.29,27.54A29.62,29.62,0,0,0,42.46,4.37a.77.77,0,0,0,.26,1.52h0a28.07,28.07,0,0,1,33,22,.77.77,0,0,0,.33.49.78.78,0,0,0,1.07-.22.76.76,0,0,0,.11-.57Z"/><path class="cls-4" d="M43.72,10.64a.77.77,0,0,0-.59.93.76.76,0,0,0,.31.47.71.71,0,0,0,.58.11,21.66,21.66,0,0,1,25.48,17,.77.77,0,0,0,.91.6h0a.76.76,0,0,0,.6-.89h0A23.21,23.21,0,0,0,43.72,10.64Z"/><path class="cls-4" d="M57.58,19.41A16.64,16.64,0,0,0,45,16.92a.77.77,0,0,0-.6.91h0a.76.76,0,0,0,.89.6h0A15.28,15.28,0,0,1,63.23,30.36a.75.75,0,0,0,.32.49.77.77,0,0,0,1.19-.79A16.68,16.68,0,0,0,57.58,19.41Z"/><path class="cls-5" d="M71.25,36.77V59.25a12,12,0,0,1-12,12h-34a12,12,0,0,1-12-12h0v-34a12,12,0,0,1,12-12h7.32"/><rect class="cls-3" x="30" y="10.5" width="7" height="7"/><circle class="cls-3" cx="71.5" cy="38" r="3.5"/></svg>