<?xml version="1.0" encoding="utf-8"?>
<!-- Generator: Adobe Illustrator 26.0.2, SVG Export Plug-In . SVG Version: 6.00 Build 0)  -->
<svg version="1.1" id="Layer_1" xmlns="http://www.w3.org/2000/svg" xmlns:xlink="http://www.w3.org/1999/xlink" x="0px" y="0px"
	 viewBox="0 0 483.4 181.8" style="enable-background:new 0 0 483.4 181.8;" xml:space="preserve">
<style type="text/css">
	.st0{enable-background:new    ;}
	.st1{fill:#010101;}
	.st2{fill:#010101;stroke:#010101;stroke-width:0.5;stroke-miterlimit:10;}
	.st3{fill:none;stroke:#010101;stroke-linejoin:round;}
	.st4{fill:none;stroke:#010101;stroke-width:2;stroke-linejoin:round;}
</style>
<g class="st0">
	<path class="st1" d="M67.9,78.7c0-3-0.7-5.6-2.1-7.7s-3.6-4-6.7-5.6c-3-1.6-7.6-3.3-13.8-5c-6.2-1.7-10.8-3.4-13.8-5.1
		c-3.1-1.7-5.3-3.7-6.8-6c-1.4-2.3-2.1-5-2.1-8.3c0-5.2,2.2-9.4,6.5-12.6c4.4-3.2,10-4.8,17-4.8c4.6,0,8.7,0.9,12.3,2.7
		c3.6,1.8,6.4,4.3,8.4,7.5c2,3.2,3,6.8,3,10.9h-2.6c0-5.3-2-9.7-5.9-13.2s-9-5.2-15.2-5.2c-6.2,0-11.3,1.4-15.2,4.2
		s-5.8,6.3-5.8,10.5c0,4.3,1.7,7.7,5,10.3c3.4,2.6,8.9,4.9,16.6,6.9s13.4,4.3,16.9,7c4.6,3.4,6.8,7.8,6.8,13.5c0,3.6-1,6.7-3,9.5
		c-2,2.8-4.9,4.9-8.6,6.4s-7.9,2.2-12.5,2.2c-5.1,0-9.8-0.9-13.9-2.6s-7.2-4.1-9.3-7.3c-2.1-3.2-3.1-6.9-3.1-11.2h2.6
		c0,5.8,2.2,10.4,6.5,13.6c4.4,3.2,10,4.8,17,4.8c6.2,0,11.3-1.4,15.4-4.3C65.8,86.9,67.9,83.2,67.9,78.7z"/>
	<path class="st1" d="M102,96.7c-4.3,0-8.2-1.1-11.7-3.4c-3.6-2.3-6.4-5.4-8.4-9.4c-2-4-3-8.4-3-13.3v-2.2c0-4.9,1-9.4,2.9-13.4
		c2-4.1,4.6-7.2,8.1-9.5c3.4-2.3,7.1-3.4,11.2-3.4c5.9,0,10.7,2.1,14.5,6.3c3.7,4.2,5.6,9.7,5.6,16.6v2.8H81.5v2.9
		c0,4.3,0.9,8.3,2.7,11.9s4.3,6.5,7.5,8.6c3.2,2.1,6.6,3.1,10.3,3.1c3.5,0,6.6-0.6,9.1-1.8c2.5-1.2,4.7-3,6.6-5.5l1.9,1.3
		C115.6,93.9,109.8,96.7,102,96.7z M101.1,44.6c-5.1,0-9.5,1.9-13.1,5.7c-3.6,3.8-5.7,8.7-6.3,14.6h36.8v-0.6c0-3.6-0.8-6.9-2.3-10
		s-3.6-5.5-6.2-7.2C107.3,45.4,104.4,44.6,101.1,44.6z"/>
	<path class="st1" d="M131,68.8c0-8.4,1.8-15,5.3-19.8c3.5-4.7,8.4-7.1,14.6-7.1c3.9,0,7.5,0.9,10.5,2.7c3.1,1.8,5.5,4.4,7.4,7.7
		v-9.4h2.6V116h-2.6V87.5c-1.9,3-4.4,5.2-7.5,6.8c-3.1,1.6-6.6,2.4-10.5,2.4c-6.1,0-11-2.4-14.5-7.3c-3.5-4.8-5.3-11.5-5.3-20V68.8z
		 M133.7,69.8c0,7.5,1.5,13.4,4.4,17.7c3,4.3,7.2,6.5,12.6,6.5c4.4,0,8.1-1,11.2-2.9c3.1-1.9,5.4-4.8,6.9-8.5V57.9
		c-1.5-4.4-3.8-7.7-6.9-10c-3.1-2.2-6.8-3.4-11-3.4c-5.4,0-9.6,2.1-12.6,6.4C135.2,55.2,133.7,61.5,133.7,69.8z"/>
	<path class="st1" d="M223.6,95.7v-8.5c-1.6,2.9-3.8,5.2-6.8,7c-3,1.7-6.8,2.6-11.4,2.6c-5.8,0-10.1-1.7-13-5.1
		c-2.9-3.4-4.4-8.3-4.4-14.7v-34h2.6V77c0.1,5.6,1.3,9.8,3.8,12.7c2.5,2.9,6.1,4.3,10.8,4.3c5,0,9.1-1.2,12.3-3.6
		c3.2-2.4,5.2-5.9,6-10.4V42.9h2.7v52.8H223.6z"/>
	<path class="st1" d="M261.9,96.7c-4.3,0-8.2-1.1-11.7-3.4c-3.6-2.3-6.4-5.4-8.4-9.4c-2-4-3-8.4-3-13.3v-2.2c0-4.9,1-9.4,2.9-13.4
		c2-4.1,4.6-7.2,8.1-9.5c3.4-2.3,7.1-3.4,11.2-3.4c5.9,0,10.7,2.1,14.5,6.3s5.6,9.7,5.6,16.6v2.8h-39.6v2.9c0,4.3,0.9,8.3,2.7,11.9
		c1.8,3.7,4.3,6.5,7.5,8.6c3.2,2.1,6.6,3.1,10.3,3.1c3.5,0,6.6-0.6,9.1-1.8c2.5-1.2,4.7-3,6.6-5.5l1.9,1.3
		C275.5,93.9,269.7,96.7,261.9,96.7z M260.9,44.6c-5.1,0-9.5,1.9-13.1,5.7c-3.6,3.8-5.7,8.7-6.3,14.6h36.8v-0.6
		c0-3.6-0.8-6.9-2.3-10s-3.6-5.5-6.2-7.2S264.2,44.6,260.9,44.6z"/>
	<path class="st1" d="M295.9,55.2c1.7-4.1,4.3-7.3,7.6-9.7c3.4-2.4,7.1-3.6,11.1-3.6c5.7,0,9.9,1.6,12.6,4.8c2.8,3.2,4.1,8,4.2,14.5
		v34.5h-2.6V61.2c0-5.7-1.2-9.8-3.5-12.6c-2.3-2.7-5.9-4.1-10.8-4.1c-4.6,0-8.5,1.6-11.8,4.9c-3.3,3.2-5.6,7.4-6.8,12.5v33.8h-2.6
		V42.9h2.6V55.2z"/>
	<path class="st1" d="M366,94.1c4.8,0,8.7-1.3,11.8-3.8c3.1-2.5,4.8-6.1,5.1-10.5h2.6c-0.3,5.1-2.2,9.2-5.9,12.3
		c-3.7,3.1-8.2,4.7-13.7,4.7c-6.6,0-11.9-2.4-15.7-7.2c-3.9-4.8-5.8-11.3-5.8-19.5v-1.8c0-8,1.9-14.4,5.8-19.2
		c3.9-4.8,9.1-7.2,15.6-7.2c5.6,0,10.2,1.7,13.9,5c3.6,3.4,5.6,7.8,5.8,13.4h-2.6c-0.2-4.8-1.9-8.6-5-11.5c-3.1-2.9-7.1-4.3-12-4.3
		c-5.9,0-10.5,2.1-13.8,6.4c-3.3,4.2-5,10.1-5,17.7v1.7c0,7.4,1.7,13.2,5.1,17.4C355.4,92,360.1,94.1,366,94.1z"/>
	<path class="st1" d="M417.8,96.7c-4.3,0-8.2-1.1-11.7-3.4c-3.6-2.3-6.4-5.4-8.4-9.4c-2-4-3-8.4-3-13.3v-2.2c0-4.9,1-9.4,2.9-13.4
		c2-4.1,4.6-7.2,8.1-9.5c3.4-2.3,7.1-3.4,11.2-3.4c5.9,0,10.7,2.1,14.5,6.3c3.7,4.2,5.6,9.7,5.6,16.6v2.8h-39.6v2.9
		c0,4.3,0.9,8.3,2.7,11.9s4.3,6.5,7.5,8.6c3.2,2.1,6.6,3.1,10.3,3.1c3.5,0,6.6-0.6,9.1-1.8c2.5-1.2,4.7-3,6.6-5.5l1.9,1.3
		C431.4,93.9,425.5,96.7,417.8,96.7z M416.8,44.6c-5.1,0-9.5,1.9-13.1,5.7c-3.6,3.8-5.7,8.7-6.3,14.6h36.8v-0.6
		c0-3.6-0.8-6.9-2.3-10s-3.6-5.5-6.2-7.2C423,45.4,420.1,44.6,416.8,44.6z"/>
</g>
<g class="st0">
	<path class="st1" d="M309.4,144.9c-0.5-2.2-1.8-4.1-3.8-5.5c-2.1-1.5-5.3-2.9-9.6-4.2c-4.3-1.3-7.6-2.6-9.6-4
		c-2.1-1.3-3.5-2.9-4.4-4.7c-0.8-1.8-1.1-3.8-0.7-6c0.4-2.6,1.5-4.9,3.3-6.9s4.1-3.5,6.9-4.6c2.8-1.1,5.8-1.6,9-1.6
		c3.1,0,5.9,0.7,8.4,2.1c2.4,1.4,4.2,3.2,5.3,5.6c1.1,2.4,1.5,5.1,1.1,8.1h-2c0.6-4-0.3-7.3-2.7-9.9c-2.4-2.6-5.8-3.9-10-3.9
		c-4,0-7.6,0.9-10.8,2.7c-3.2,1.8-5.3,4.2-6.2,7.2c-0.5,1.8-0.6,3.4-0.3,4.8c0.5,2.2,1.8,4,4,5.4c2.2,1.4,5.2,2.7,9.1,3.8
		c6,1.7,10.1,3.8,12.5,6.3s3.2,5.5,2.6,9.1c-0.4,2.7-1.5,5.1-3.4,7.1c-1.8,2-4.2,3.6-7.1,4.8c-2.9,1.1-6,1.7-9.2,1.7
		c-5.6,0-9.9-1.4-13-4.3s-4.3-6.7-3.6-11.5h2c-0.6,4.2,0.4,7.5,3.1,10.1c2.7,2.5,6.5,3.8,11.5,3.8c4,0,7.6-0.9,10.8-2.7
		c3.2-1.8,5.4-4.1,6.4-7.1C309.6,148.5,309.8,146.6,309.4,144.9z"/>
	<path class="st1" d="M332.6,162.2c-3.2,0-5.9-0.9-8.2-2.7c-2.3-1.8-3.9-4.2-5-7.3c-1-3.1-1.3-6.3-0.8-9.7l0.3-1.8
		c0.6-3.6,1.8-6.9,3.8-10c1.9-3.1,4.2-5.5,6.8-7.1s5.5-2.5,8.5-2.5c4,0,7.1,1.5,9.4,4.4c2.3,3,3.2,6.7,2.9,11.4l-0.1,1.1l-0.3,2.3
		h-28.8l-0.4,2.2c-0.3,2-0.4,4.1,0,6.2c0.5,3.5,1.9,6.3,4,8.4c2.1,2.1,4.8,3.1,7.9,3.2c4.6,0,8.7-1.7,12.3-5.4l1.3,1
		C342.6,160.1,338.1,162.2,332.6,162.2z M338,123.1c-3.8,0-7.1,1.4-10.1,4.2c-3,2.8-5.2,6.5-6.6,11H348l0.1-0.5
		c0.3-1.8,0.3-3.5,0.1-5.3c-0.4-2.9-1.6-5.2-3.4-6.9C342.9,124,340.7,123.1,338,123.1z"/>
	<path class="st1" d="M362.2,131.1c2-3.2,4.3-5.7,7-7.4c2.7-1.7,5.5-2.6,8.3-2.6c3,0,5.4,0.8,7.1,2.3s2.7,3.8,3,6.8
		c0.1,1.9,0,3.8-0.3,5.8l-4.4,25.4h-2l4.4-25.4c0.3-1.7,0.4-3.4,0.4-5c-0.1-2.6-0.9-4.6-2.3-5.9c-1.4-1.4-3.4-2-6-2
		c-3.3,0-6.6,1.3-9.6,3.9c-3.1,2.5-5.2,5.6-6.3,9.1l-4.4,25.4h-2l6.8-39.6h2L362.2,131.1z"/>
	<path class="st1" d="M421.1,151.8c0.9-4.6-2.5-7.8-10-9.8l-4.1-1.2c-5.6-1.8-8.1-5.1-7.4-9.7c0.4-3,2-5.4,4.8-7.2
		c2.7-1.8,5.9-2.7,9.5-2.7c4,0,7.1,1,9.3,3.1c2.2,2.1,3.2,4.8,2.9,8.2h-2c0.3-2.8-0.5-5-2.5-6.8c-1.9-1.7-4.5-2.6-7.7-2.6
		c-3.1,0-5.8,0.7-8.2,2.2c-2.3,1.4-3.7,3.4-4.2,5.8c-0.7,3.9,1.5,6.6,6.7,8.3l5.5,1.6l1.8,0.6c5.7,2.1,8.2,5.5,7.5,10.3
		c-0.5,3.1-2.1,5.7-4.9,7.6c-2.8,1.9-6.2,2.8-10.1,2.8c-4.1,0-7.3-1-9.8-3c-2.4-2-3.5-4.6-3.1-7.8h1.9c-0.1,2.7,0.8,4.9,2.7,6.5
		c1.9,1.6,4.7,2.4,8.2,2.4c3.4-0.1,6.3-0.9,8.7-2.4C419.2,156.3,420.7,154.3,421.1,151.8z"/>
	<path class="st1" d="M446.4,162.2c-3.2,0-5.9-0.9-8.2-2.7c-2.3-1.8-3.9-4.2-5-7.3c-1-3.1-1.3-6.3-0.8-9.7l0.3-1.8
		c0.6-3.6,1.8-6.9,3.8-10c1.9-3.1,4.2-5.5,6.8-7.1s5.5-2.5,8.5-2.5c4,0,7.1,1.5,9.4,4.4c2.3,3,3.2,6.7,2.9,11.4l-0.1,1.1l-0.3,2.3
		h-28.8l-0.4,2.2c-0.3,2-0.4,4.1,0,6.2c0.5,3.5,1.9,6.3,4,8.4c2.1,2.1,4.8,3.1,7.9,3.2c4.6,0,8.7-1.7,12.3-5.4l1.3,1
		C456.4,160.1,451.8,162.2,446.4,162.2z M451.7,123.1c-3.8,0-7.1,1.4-10.1,4.2c-3,2.8-5.2,6.5-6.6,11h26.7l0.1-0.5
		c0.3-1.8,0.3-3.5,0.1-5.3c-0.4-2.9-1.6-5.2-3.4-6.9C456.7,124,454.4,123.1,451.7,123.1z"/>
</g>
<path class="st2" d="M483.1,124.5c-3.2-16-18.8-26.4-34.8-23.2c-0.4,0.1-0.7,0.5-0.6,0.9c0.1,0.4,0.5,0.7,0.9,0.6
	c15.2-3,29.9,6.8,33,22c0,0.2,0.2,0.4,0.3,0.5c0.2,0.1,0.4,0.2,0.6,0.1C482.9,125.4,483.2,125,483.1,124.5
	C483.1,124.6,483.1,124.5,483.1,124.5z"/>
<path class="st2" d="M449.5,107.6c-0.4,0.1-0.7,0.5-0.6,0.9c0,0.2,0.2,0.4,0.3,0.5c0.2,0.1,0.4,0.2,0.6,0.1
	c11.7-2.3,23.1,5.3,25.5,17c0.1,0.4,0.5,0.7,0.9,0.6c0.4-0.1,0.7-0.5,0.6-0.9C474.3,113.3,462.1,105.1,449.5,107.6z"/>
<path class="st2" d="M463.4,116.4c-3.7-2.5-8.2-3.4-12.6-2.5c-0.4,0.1-0.7,0.5-0.6,0.9c0,0,0,0,0,0c0.1,0.4,0.5,0.7,0.9,0.6
	c8.2-1.7,16.3,3.7,17.9,11.9c0,0.2,0.2,0.4,0.3,0.5c0.2,0.1,0.4,0.2,0.6,0.1c0.4-0.1,0.7-0.5,0.6-0.9c0,0,0,0,0,0
	C469.7,122.7,467.1,118.9,463.4,116.4z"/>
<path class="st3" d="M259.8,138"/>
<path class="st4" d="M259.8,138H21c-11,0-20-9-20-20V21C1,10,10,1,21,1h424c11,0,20,9,20,20v63.9"/>
<rect x="255.5" y="133.5" class="st1" width="10" height="10"/>
<circle class="st1" cx="465.5" cy="84.5" r="5"/>
</svg>
