<svg id="Layer_1" data-name="Layer 1" xmlns="http://www.w3.org/2000/svg" viewBox="0 0 65.3 84.49"><defs><style>.cls-1{font-size:75px;font-family:Roboto-ThinItalic, Roboto;font-weight:200;font-style:italic;}.cls-1,.cls-2,.cls-4{fill:#010101;}.cls-2,.cls-3{stroke:#010101;stroke-miterlimit:10;}.cls-2{stroke-width:0.5px;}.cls-3{fill:none;stroke-width:2px;}</style></defs><text class="cls-1" transform="translate(12.14 64.16)">s</text><path class="cls-2" d="M77.29,27.54A29.62,29.62,0,0,0,42.46,4.37a.77.77,0,1,0,.3,1.51,28.07,28.07,0,0,1,33,22,.74.74,0,0,0,.33.49.77.77,0,0,0,1.18-.79Z" transform="translate(-12.25 -0.36)"/><path class="cls-2" d="M43.72,10.64a.78.78,0,0,0-.28,1.4.74.74,0,0,0,.58.11,21.66,21.66,0,0,1,25.48,17,.77.77,0,0,0,.91.6.76.76,0,0,0,.6-.9A23.21,23.21,0,0,0,43.72,10.64Z" transform="translate(-12.25 -0.36)"/><path class="cls-2" d="M57.58,19.41A16.66,16.66,0,0,0,45,16.92a.77.77,0,0,0-.6.91.76.76,0,0,0,.9.6A15.27,15.27,0,0,1,63.23,30.36a.76.76,0,0,0,.32.49.77.77,0,0,0,1.19-.79A16.68,16.68,0,0,0,57.58,19.41Z" transform="translate(-12.25 -0.36)"/><path class="cls-3" d="M71.25,36.77V59.25a12,12,0,0,1-12,12h-34a12,12,0,0,1-12-12v-34a12,12,0,0,1,12-12h7.32" transform="translate(-12.25 -0.36)"/><rect class="cls-4" x="17.75" y="10.14" width="7" height="7"/><circle class="cls-4" cx="59.25" cy="37.64" r="3.5"/></svg>